<svg width="17" height="16" viewBox="0 0 17 16" fill="none" xmlns="http://www.w3.org/2000/svg">
<path d="M10.4655 3.48812C11.1167 3.61516 11.7151 3.93362 12.1842 4.40274C12.6533 4.87186 12.9718 5.47029 13.0988 6.12145L10.4655 3.48812ZM10.4655 0.821449C11.8183 0.97174 13.0799 1.57757 14.043 2.53945C15.0061 3.50134 15.6135 4.76212 15.7655 6.11478L10.4655 0.821449ZM15.0988 11.4348V13.4348C15.0996 13.6204 15.0616 13.8042 14.9872 13.9743C14.9128 14.1445 14.8037 14.2972 14.6669 14.4227C14.5301 14.5482 14.3685 14.6438 14.1927 14.7033C14.0168 14.7627 13.8304 14.7848 13.6455 14.7681C11.5941 14.5452 9.6235 13.8442 7.89217 12.7214C6.28138 11.6979 4.91572 10.3322 3.89217 8.72145C2.76548 6.98225 2.06433 5.00211 1.8455 2.94145C1.82884 2.75709 1.85075 2.57129 1.90983 2.39587C1.96892 2.22044 2.06388 2.05924 2.18868 1.92253C2.31347 1.78582 2.46537 1.67659 2.63469 1.6018C2.80402 1.52701 2.98706 1.48829 3.17217 1.48812H5.17217C5.4957 1.48493 5.80936 1.5995 6.05467 1.81047C6.29999 2.02144 6.46022 2.31441 6.5055 2.63478C6.58991 3.27483 6.74647 3.90327 6.97217 4.50812C7.06186 4.74673 7.08127 5.00606 7.0281 5.25537C6.97493 5.50468 6.85141 5.73352 6.67217 5.91478L5.8255 6.76145C6.77454 8.43048 8.15647 9.81241 9.8255 10.7614L10.6722 9.91478C10.8534 9.73554 11.0823 9.61201 11.3316 9.55884C11.5809 9.50567 11.8402 9.52509 12.0788 9.61478C12.6837 9.84048 13.3121 9.99703 13.9522 10.0814C14.276 10.1271 14.5718 10.2903 14.7832 10.5398C14.9946 10.7893 15.1069 11.1078 15.0988 11.4348Z" stroke="#516BE8" stroke-width="2" stroke-linecap="round" stroke-linejoin="round"/>
</svg>
